<?xml version="1.0" encoding="UTF-8"?>
<svg width="22px" height="12px" viewBox="0 0 22 12" version="1.1" xmlns="http://www.w3.org/2000/svg" xmlns:xlink="http://www.w3.org/1999/xlink">
    <!-- Generator: Sketch 46.2 (44496) - http://www.bohemiancoding.com/sketch -->
    <title>Path</title>
    <desc>Created with Sketch.</desc>
    <defs></defs>
    <g id="Page-2" stroke="none" stroke-width="1" fill="none" fill-rule="evenodd">
        <g id="Artboard-Copy-13" transform="translate(-1548.000000, -1072.000000)" fill="#262626">
            <g id="Group-3" transform="translate(799.000000, 1061.000000)">
                <g id="Group-9" transform="translate(639.000000, 4.000000)">
                    <path d="M125.621146,7.00016012 C125.387917,7.01595452 125.186878,7.17513673 125.111781,7.40347463 C125.036684,7.63181254 125.10232,7.88433463 125.278079,8.04328123 L129.936567,12.3834101 L110.634538,12.3834101 C110.598505,12.3799102 110.562234,12.3799102 110.526201,12.3834101 C110.207093,12.4142726 109.972656,12.7061609 110.002573,13.0353608 C110.032489,13.3645607 110.31543,13.606411 110.634538,13.5755485 L129.936567,13.5755485 L125.278079,17.8970503 C125.081957,18.0223638 124.976876,18.2560091 125.010764,18.4914156 C125.044653,18.7268221 125.211018,18.9188798 125.433977,18.9799872 C125.656935,19.0410946 125.893763,18.9595418 126.036437,18.7725269 L131.814407,13.4079041 C131.932724,13.2950667 132,13.1363907 132,12.9701657 C132,12.8039408 131.932724,12.6452648 131.814407,12.5324274 L126.036437,7.16780458 C125.925327,7.05684887 125.775744,6.99646519 125.621146,7.00016012 Z" id="Path"></path>
                </g>
            </g>
        </g>
    </g>
</svg>