<svg width="10" height="6" viewBox="0 0 10 6" version="1.1" xmlns="http://www.w3.org/2000/svg" xmlns:xlink="http://www.w3.org/1999/xlink">
<title>Path</title>
<desc>Created using Figma</desc>
<g id="Canvas" transform="translate(-267 1117)">
<g id="Path">
<use xlink:href="#path0_fill" transform="matrix(6.12323e-17 1 -1 6.12323e-17 277 -1117)" fill="#373737"/>
</g>
</g>
<defs>
<path id="path0_fill" d="M 0.0920346 0.336229C 0.156445 0.145947 0.328874 0.0132954 0.528912 0.000133433C 0.661509 -0.00294568 0.789806 0.0473741 0.885104 0.139837L 5.84082 4.61036C 5.9423 4.70439 6 4.83662 6 4.97514C 6 5.11366 5.9423 5.24589 5.84082 5.33992L 0.885104 9.81044C 0.762733 9.96628 0.559608 10.0342 0.368378 9.98332C 0.177148 9.9324 0.0344589 9.77235 0.00539289 9.57618C -0.0236732 9.38001 0.0664551 9.1853 0.234667 9.08088L 4.55266 5L 0.234667 0.869401C 0.0839197 0.736946 0.0276246 0.52651 0.0920346 0.336229Z"/>
</defs>
</svg>
