<svg width="18" height="34" viewBox="0 0 18 34" version="1.1" xmlns="http://www.w3.org/2000/svg" xmlns:xlink="http://www.w3.org/1999/xlink">
<title>Path</title>
<desc>Created using Figma</desc>
<g id="Canvas" transform="translate(445 -1334)">
<g id="Path">
<use xlink:href="#path0_fill" transform="matrix(6.12323e-17 1 -1 6.12323e-17 -427 1334)" fill="#5C5C5C"/>
</g>
</g>
<defs>
<path id="path0_fill" fill-rule="evenodd" d="M 24.1418 0.000240179C 23.7813 0.0239318 23.4706 0.262705 23.3546 0.605212C 23.2385 0.947719 23.3399 1.3265 23.6116 1.56492L 30.8111 8.07512L 0.98065 8.07512C 0.924963 8.06987 0.868907 8.06987 0.81322 8.07512C 0.320052 8.12141 -0.0422584 8.55924 0.00397603 9.05304C 0.0502105 9.54684 0.487482 9.90962 0.98065 9.86332L 30.8111 9.86332L 23.6116 16.3456C 23.3085 16.5335 23.1461 16.884 23.1985 17.2371C 23.2508 17.5902 23.5079 17.8783 23.8525 17.97C 24.1971 18.0616 24.5631 17.9393 24.7836 17.6588L 33.7132 9.61186C 33.896 9.4426 34 9.20459 34 8.95525C 34 8.70591 33.896 8.4679 33.7132 8.29864L 24.7836 0.251707C 24.6119 0.0852733 24.3807 -0.00530221 24.1418 0.000240179Z"/>
</defs>
</svg>
