<svg width="34" height="35" viewBox="0 0 34 35" version="1.1" xmlns="http://www.w3.org/2000/svg" xmlns:xlink="http://www.w3.org/1999/xlink">
<title>Group 8</title>
<desc>Created using Figma</desc>
<g id="Canvas" transform="translate(-3899 1023)">
<g id="Group 8">
<g id="Oval Copy 3">
<use xlink:href="#path0_stroke" transform="translate(3900 -1022)" fill="#353535"/>
</g>
<g id="Oval Copy 3">
<use xlink:href="#path1_stroke" transform="translate(3903 -1019)"/>
</g>
</g>
</g>
<defs>
<path id="path0_stroke" d="M 9.4396 0.474696C 9.70177 0.387962 9.84398 0.105121 9.75725 -0.157046C 9.67051 -0.419214 9.38767 -0.56143 9.12551 -0.474696L 9.4396 0.474696ZM -0.46008 8.43457C -0.568201 8.68867 -0.449866 8.9823 -0.195771 9.09042C 0.0583247 9.19854 0.351959 9.08021 0.46008 8.82611L -0.46008 8.43457ZM 9.12551 -0.474696C 4.82006 0.949695 1.33066 4.22616 -0.46008 8.43457L 0.46008 8.82611C 2.1419 4.87368 5.41549 1.80601 9.4396 0.474696L 9.12551 -0.474696Z"/>
<path id="path1_stroke" d="M 14.4102 30.12C 22.6577 30.12 29.3205 23.2525 29.3205 14.81L 28.3205 14.81C 28.3205 22.7262 22.0798 29.12 14.4102 29.12L 14.4102 30.12ZM 29.3205 14.81C 29.3205 6.36751 22.6577 -0.5 14.4102 -0.5L 14.4102 0.5C 22.0798 0.5 28.3205 6.89382 28.3205 14.81L 29.3205 14.81ZM 14.4102 -0.5C 6.16273 -0.5 -0.5 6.36751 -0.5 14.81L 0.5 14.81C 0.5 6.89382 6.74063 0.5 14.4102 0.5L 14.4102 -0.5ZM -0.5 14.81C -0.5 23.2525 6.16273 30.12 14.4102 30.12L 14.4102 29.12C 6.74063 29.12 0.5 22.7262 0.5 14.81L -0.5 14.81Z"/>
</defs>
</svg>
