<?xml version="1.0" encoding="UTF-8"?>
<svg width="183px" height="112px" viewBox="0 0 183 112" version="1.1" xmlns="http://www.w3.org/2000/svg" xmlns:xlink="http://www.w3.org/1999/xlink">
    <!-- Generator: Sketch 46.2 (44496) - http://www.bohemiancoding.com/sketch -->
    <title>logo_white</title>
    <desc>Created with Sketch.</desc>
    <defs></defs>
    <g id="Page-1" stroke="none" stroke-width="1" fill="none" fill-rule="evenodd">
        <g id="logo_white" fill-rule="nonzero" fill="#FFFFFF">
            <g id="Oval-Copy-3">
                <g id="path0_stroke-link">
                    <path d="M32.9209,1.713931 C33.3152,1.587022 33.532,1.164504 33.4051,0.770211 C33.2782,0.375918 32.8557,0.15916 32.4614,0.286069 L32.9209,1.713931 Z M0.31285,29.365 C0.146866,29.7445 0.319956,30.1867 0.699459,30.3527 C1.078961,30.5187 1.521165,30.3456 1.68715,29.9661 L0.31285,29.365 Z M32.4614,0.286069 C18.0363,4.92897 6.32607,15.6165 0.31285,29.365 L1.68715,29.9661 C7.52943,16.6084 18.9084,6.22405 32.9209,1.713931 L32.4614,0.286069 Z" id="path0_stroke"></path>
                </g>
            </g>
            <g id="Oval-Copy-3" transform="translate(4.000000, 6.000000)">
                <g id="path1_stroke-link" transform="translate(0.258000, 0.100000)">
                    <path d="M52.9577,105.652 C82.0673,105.652 105.665,82.0573 105.665,52.9512 L104.165,52.9512 C104.165,81.2287 81.2391,104.152 52.9577,104.152 L52.9577,105.652 Z M105.665,52.9512 C105.665,23.845 82.0673,0.25 52.9577,0.25 L52.9577,1.75 C81.2391,1.75 104.165,24.6736 104.165,52.9512 L105.665,52.9512 Z M52.9577,0.25 C23.8482,0.25 0.25,23.845 0.25,52.9512 L1.75,52.9512 C1.75,24.6736 24.6764,1.75 52.9577,1.75 L52.9577,0.25 Z M0.25,52.9512 C0.25,82.0573 23.8482,105.652 52.9577,105.652 L52.9577,104.152 C24.6764,104.152 1.75,81.2287 1.75,52.9512 L0.25,52.9512 Z" id="path1_stroke"></path>
                </g>
            </g>
            <g id="FRED-WOOD" transform="translate(44.000000, 42.000000)">
                <g id="path2_fill-link" transform="translate(0.350000, 0.300000)">
                    <path d="M2.32086,6.59479 C2.32086,6.49175 2.38956,6.42305 2.49262,6.42305 L7.09582,6.42305 C7.28476,6.42305 7.43934,6.26849 7.43934,6.07957 L7.43934,5.6674 C7.43934,5.47849 7.28476,5.32392 7.09582,5.32392 L2.49262,5.32392 C2.38956,5.32392 2.32086,5.25523 2.32086,5.15218 L2.32086,1.27087 C2.32086,1.16783 2.38956,1.09913 2.49262,1.09913 L7.28476,1.09913 C7.47369,1.09913 7.62828,0.944567 7.62828,0.755653 L7.62828,0.343479 C7.62828,0.154565 7.47369,0 7.28476,0 L1.56511,0 C1.37617,0 1.22159,0.154565 1.22159,0.343479 L1.22159,11.6783 C1.22159,11.8672 1.37617,12.0218 1.56511,12.0218 L1.97734,12.0218 C2.16627,12.0218 2.32086,11.8672 2.32086,11.6783 L2.32086,6.59479 Z M18.7069,1.09912 C20.081,1.09912 21.2146,2.2326 21.2146,3.60652 C21.2146,4.98043 20.081,6.11391 18.7069,6.11391 L16.7145,6.11391 C16.6114,6.11391 16.5427,6.04522 16.5427,5.94217 L16.5427,1.27086 C16.5427,1.16782 16.6114,1.09912 16.7145,1.09912 L18.7069,1.09912 Z M18.5867,7.21305 C18.7756,7.21305 18.8615,7.3161 18.913,7.41914 L20.8024,11.06 C20.9913,11.4207 21.1287,12.0218 21.6097,12.0218 L21.9875,12.0218 C22.3311,12.0218 22.4513,11.7641 22.3139,11.5065 L20.1497,7.41914 C20.0123,7.16153 20.0638,7.00697 20.2699,6.86958 C21.5066,6.09675 22.3139,5.15218 22.3139,3.60653 C22.3139,1.61435 20.6993,0 18.7069,0 L15.787,0 C15.598,0 15.4434,0.154565 15.4434,0.343479 L15.4434,11.6783 C15.4434,11.8672 15.598,12.0218 15.787,12.0218 L16.1992,12.0218 C16.3881,12.0218 16.5427,11.8672 16.5427,11.6783 L16.5427,7.38479 C16.5427,7.28175 16.6114,7.21305 16.7145,7.21305 L18.5867,7.21305 Z M31.2455,1.27087 C31.2455,1.16783 31.3142,1.09913 31.4172,1.09913 L36.2093,1.09913 C36.3983,1.09913 36.5529,0.944567 36.5529,0.755653 L36.5529,0.343479 C36.5529,0.154565 36.3983,0 36.2093,0 L30.4897,0 C30.3008,0 30.1462,0.154565 30.1462,0.343479 L30.1462,11.6783 C30.1462,11.8672 30.3008,12.0218 30.4897,12.0218 L36.2437,12.0218 C36.4326,12.0218 36.5872,11.8672 36.5872,11.6783 L36.5872,11.2661 C36.5872,11.0772 36.4326,10.9226 36.2437,10.9226 L31.4172,10.9226 C31.3142,10.9226 31.2455,10.8539 31.2455,10.7509 L31.2455,6.59479 C31.2455,6.49175 31.3142,6.42305 31.4172,6.42305 L36.0204,6.42305 C36.2093,6.42305 36.3639,6.26849 36.3639,6.07957 L36.3639,5.68457 C36.3639,5.49566 36.2093,5.34109 36.0204,5.34109 L31.4172,5.34109 C31.3142,5.34109 31.2455,5.2724 31.2455,5.16936 L31.2455,1.27087 Z M47.5628,12.0218 C49.6239,12.0218 51.101,10.8024 51.393,8.58697 C51.582,7.19588 51.582,4.8087 51.393,3.43479 C51.1354,1.56283 49.83,0 47.5628,0 L44.4711,0 C44.2821,0 44.1275,0.154565 44.1275,0.343479 L44.1275,11.6783 C44.1275,11.8672 44.2821,12.0218 44.4711,12.0218 L47.5628,12.0218 Z M45.3986,10.9226 C45.2955,10.9226 45.2268,10.8539 45.2268,10.7509 L45.2268,1.27086 C45.2268,1.16782 45.2955,1.09912 45.3986,1.09912 L47.5628,1.09912 C49.1945,1.09912 50.0533,2.18108 50.2422,3.43478 C50.4483,4.84304 50.4483,7.1787 50.2422,8.58696 C50.1048,9.58305 49.4178,10.9226 47.5628,10.9226 L45.3986,10.9226 Z M5.12058,25.1599 C5.08623,24.9882 4.94882,24.9023 4.79424,24.9023 L3.79802,24.9023 C3.64344,24.9023 3.50603,24.9882 3.47167,25.1599 L2.42393,30.398 C2.40676,30.501 2.23499,30.501 2.21782,30.398 L1.5136,21.7251 C1.49642,21.5362 1.34184,21.4675 1.18725,21.4675 L0.345622,21.4675 C0.0708042,21.4675 -0.0150764,21.6393 0.00209974,21.811 L1.08419,33.2317 C1.10137,33.4034 1.25596,33.4893 1.41054,33.4893 L2.97357,33.4893 C3.12815,33.4893 3.26556,33.4034 3.29991,33.2317 L4.26178,28.0451 C4.27895,27.9593 4.34766,27.9593 4.36483,28.0451 L5.08623,33.2317 C5.10341,33.4034 5.25799,33.4893 5.41258,33.4893 L6.9756,33.4893 C7.13019,33.4893 7.28477,33.4034 7.30195,33.2317 L8.53863,21.811 C8.5558,21.6393 8.46992,21.4675 8.19511,21.4675 L7.35348,21.4675 C7.19889,21.4675 7.04431,21.5362 7.02713,21.7251 L6.2542,30.398 C6.23703,30.501 6.06527,30.501 6.04809,30.398 L5.12058,25.1599 Z M18.7412,22.9617 C20.0981,22.9617 20.8367,23.8891 20.9741,24.9023 C21.1631,26.3106 21.1802,28.6462 20.9741,30.0545 C20.8024,31.291 19.892,31.9952 18.7412,31.9952 C17.4015,31.9952 16.6457,31.0506 16.5083,30.0545 C16.3366,28.6462 16.3366,26.3106 16.5083,24.9023 C16.6629,23.6486 17.6248,22.9617 18.7412,22.9617 Z M18.7412,21.3301 C16.474,21.3301 15.0999,23.0303 14.8766,24.9023 C14.7048,26.2762 14.7048,28.6633 14.8766,30.0544 C15.1514,32.2699 16.6801,33.6266 18.7412,33.6266 C21.0085,33.6266 22.3997,31.9436 22.6059,30.0544 C22.7604,28.6805 22.7776,26.2762 22.6059,24.9023 C22.331,22.6868 20.8024,21.3301 18.7412,21.3301 Z M33.2035,22.9617 C34.5604,22.9617 35.299,23.8891 35.4364,24.9023 C35.6254,26.3106 35.6425,28.6462 35.4364,30.0545 C35.2647,31.291 34.3543,31.9952 33.2035,31.9952 C31.8638,31.9952 31.108,31.0506 30.9706,30.0545 C30.7989,28.6462 30.7989,26.3106 30.9706,24.9023 C31.1252,23.6486 32.0871,22.9617 33.2035,22.9617 Z M33.2035,21.3301 C30.9363,21.3301 29.5622,23.0303 29.3389,24.9023 C29.1671,26.2762 29.1671,28.6633 29.3389,30.0544 C29.6137,32.2699 31.1424,33.6266 33.2035,33.6266 C35.4708,33.6266 36.862,31.9436 37.0681,30.0544 C37.2227,28.6805 37.2399,26.2762 37.0681,24.9023 C36.7933,22.6868 35.2646,21.3301 33.2035,21.3301 Z M47.7689,33.4893 C49.7613,33.4893 51.1526,31.8578 51.3759,29.8828 C51.5304,28.5088 51.5476,26.448 51.3759,25.0741 C51.1354,23.0819 49.7613,21.4675 47.7689,21.4675 L44.5054,21.4675 C44.3165,21.4675 44.1619,21.6221 44.1619,21.811 L44.1619,33.1458 C44.1619,33.3347 44.3165,33.4893 44.5054,33.4893 L47.7689,33.4893 Z M45.9654,31.8576 C45.8623,31.8576 45.7936,31.7889 45.7936,31.6858 L45.7936,23.2706 C45.7936,23.1676 45.8623,23.0989 45.9654,23.0989 L47.7689,23.0989 C48.8166,23.0989 49.6239,24.0434 49.7441,25.0739 C49.9159,26.4478 49.9159,28.5087 49.7441,29.8826 C49.6239,30.913 48.8166,31.8576 47.7689,31.8576 L45.9654,31.8576 Z" id="path2_fill"></path>
                </g>
            </g>
            <g id="CHASE-TURN" transform="translate(115.000000, 42.000000)">
                <g id="path3_fill-link" transform="translate(0.864000, 0.170000)">
                    <path d="M7.65145,8.72436 C7.65145,9.73762 6.827,11.1974 4.97198,11.1974 C3.11696,11.1974 2.42991,9.72045 2.2925,8.72436 C2.08639,7.3161 2.08639,4.98044 2.2925,3.57218 C2.48144,2.31848 3.34025,1.09913 4.97198,1.09913 C6.60371,1.09913 7.65145,2.30131 7.65145,3.57218 L7.65145,3.64087 C7.65145,3.82979 7.80603,3.98435 7.99497,3.98435 L8.45873,3.98435 C8.64766,3.98435 8.80225,3.82979 8.80225,3.64087 L8.80225,3.57218 C8.80225,1.68305 7.23922,0 4.97198,0 C2.70473,0 1.399345,1.70022 1.141703,3.57218 C0.9527657,4.94609 0.9527657,7.33327 1.141703,8.72436 C1.433697,10.9398 2.91084,12.2965 4.97198,12.2965 C7.03311,12.2965 8.80225,10.957 8.80225,8.72436 L8.80225,8.65567 C8.80225,8.46675 8.64766,8.31219 8.45873,8.31219 L7.99497,8.31219 C7.80603,8.31219 7.65145,8.46675 7.65145,8.65567 L7.65145,8.72436 Z M16.9437,0.48093 C16.9437,0.292017 16.7892,0.137451 16.6002,0.137451 L16.188,0.137451 C15.9991,0.137451 15.8445,0.292017 15.8445,0.48093 L15.8445,11.8157 C15.8445,12.0046 15.9991,12.1592 16.188,12.1592 L16.6002,12.1592 C16.7892,12.1592 16.9437,12.0046 16.9437,11.8157 L16.9437,6.73224 C16.9437,6.6292 17.0124,6.5605 17.1155,6.5605 L21.6156,6.5605 C21.7187,6.5605 21.7874,6.6292 21.7874,6.73224 L21.7874,11.8157 C21.7874,12.0046 21.942,12.1592 22.1309,12.1592 L22.5432,12.1592 C22.7321,12.1592 22.8867,12.0046 22.8867,11.8157 L22.8867,0.48093 C22.8867,0.292017 22.7321,0.137451 22.5432,0.137451 L22.1309,0.137451 C21.942,0.137451 21.7874,0.292017 21.7874,0.48093 L21.7874,5.28963 C21.7874,5.39268 21.7187,5.46137 21.6156,5.46137 L17.1155,5.46137 C17.0124,5.46137 16.9437,5.39268 16.9437,5.28963 L16.9437,0.48093 Z M31.7324,8.9992 C31.7839,8.84464 31.9041,8.75877 32.0587,8.75877 L35.597,8.75877 C35.7516,8.75877 35.8718,8.84464 35.9233,8.9992 L36.765,11.9016 C36.7993,12.0562 36.9367,12.1592 37.0913,12.1592 L37.5207,12.1592 C37.7955,12.1592 37.8986,11.9703 37.8642,11.8157 L34.5836,0.39506 C34.5493,0.240495 34.4118,0.137451 34.2573,0.137451 L33.3985,0.137451 C33.2439,0.137451 33.1065,0.240495 33.0721,0.39506 L29.7915,11.8157 C29.7571,11.9703 29.8602,12.1592 30.135,12.1592 L30.5644,12.1592 C30.719,12.1592 30.8564,12.0562 30.8907,11.9016 L31.7324,8.9992 Z M33.742,1.66603 C33.7592,1.59734 33.7763,1.56299 33.8107,1.56299 L33.845,1.56299 C33.8794,1.56299 33.8966,1.59734 33.9137,1.66603 L35.4768,7.50517 C35.5111,7.64256 35.4424,7.69408 35.3394,7.69408 L32.3164,7.69408 C32.2133,7.69408 32.1446,7.64256 32.1789,7.50517 L33.742,1.66603 Z M50.8665,8.72436 C50.8494,10.1841 49.8531,11.1974 48.2901,11.1974 C46.5897,11.1974 45.7137,9.92654 45.7137,8.72436 L45.7137,8.44958 C45.7137,8.26066 45.5591,8.1061 45.3702,8.1061 L44.9408,8.1061 C44.7518,8.1061 44.5973,8.26066 44.5973,8.44958 L44.5973,8.72436 C44.5973,10.6822 46.0744,12.2965 48.2901,12.2965 C50.231,12.2965 51.983,10.9741 51.983,8.72436 C51.983,6.61197 50.6948,5.85631 48.8398,5.28957 C47.6546,4.92892 46.0401,4.77435 46.0401,3.2287 C46.0401,2.16392 46.7615,1.09913 48.2901,1.09913 C49.5783,1.09913 50.5402,1.99218 50.5402,3.2287 L50.5402,3.45196 C50.5402,3.64088 50.6948,3.79544 50.8837,3.79544 L51.2959,3.79544 C51.4849,3.79544 51.6395,3.64088 51.6395,3.45196 L51.6395,3.2287 C51.6395,1.45978 50.3169,0 48.2901,0 C46.521,0 44.9236,1.16783 44.9236,3.2287 C44.9236,5.23805 46.5553,5.89066 47.8092,6.18262 C49.7673,6.64631 50.8837,7.16153 50.8665,8.72436 Z M60.7943,1.40832 C60.7943,1.30528 60.863,1.23658 60.9661,1.23658 L65.7582,1.23658 C65.9472,1.23658 66.1018,1.08202 66.1018,0.893104 L66.1018,0.48093 C66.1018,0.292017 65.9472,0.137451 65.7582,0.137451 L60.0386,0.137451 C59.8497,0.137451 59.6951,0.292017 59.6951,0.48093 L59.6951,11.8157 C59.6951,12.0046 59.8497,12.1592 60.0386,12.1592 L65.7926,12.1592 C65.9815,12.1592 66.1361,12.0046 66.1361,11.8157 L66.1361,11.4036 C66.1361,11.2146 65.9815,11.0601 65.7926,11.0601 L60.9661,11.0601 C60.863,11.0601 60.7943,10.9914 60.7943,10.8883 L60.7943,6.73224 C60.7943,6.6292 60.863,6.5605 60.9661,6.5605 L65.5693,6.5605 C65.7582,6.5605 65.9128,6.40594 65.9128,6.21703 L65.9128,5.82203 C65.9128,5.63311 65.7582,5.47855 65.5693,5.47855 L60.9661,5.47855 C60.863,5.47855 60.7943,5.40985 60.7943,5.30681 L60.7943,1.40832 Z M4.67395606,32.6044067 C3.32007737,32.6044067 2.55635093,31.6671061 2.41749158,30.6430184 C2.24391739,29.21971 2.24391739,26.859101 2.41749158,25.4357926 C2.57370835,24.168701 3.54572382,23.4744043 4.67395606,23.4744043 C6.25348121,23.4917617 6.93042055,24.5332068 6.93042055,25.6787965 C6.93042055,25.8697281 7.08663732,26.0259449 7.27756894,26.0259449 L8.23222699,26.0259449 C8.4231586,26.0259449 8.57937537,25.8697281 8.57937537,25.6787965 C8.57937537,23.2834726 6.93042055,21.8254494 4.67395606,21.8254494 C2.38277674,21.8254494 0.994183208,23.5438339 0.768536759,25.4357926 C0.594962568,26.8243862 0.594962568,29.2370674 0.768536759,30.6430184 C1.04625547,32.8821254 2.59106577,34.2533615 4.67395606,34.2533615 C7.156067,34.2533615 8.57937537,32.4308325 8.57937537,30.4000145 C8.57937537,30.2090829 8.4231586,30.0528661 8.23222699,30.0528661 L7.27756894,30.0528661 C6.93042055,30.0528661 6.93042055,30.3826571 6.93042055,30.6430184 C6.93042055,31.91011 5.83690315,32.6044067 4.67395606,32.6044067 Z M19.2980387,23.6132636 L17.6490839,23.6132636 C17.5449394,23.6132636 17.4755097,23.6826933 17.4755097,23.7868378 L17.4755097,27.4318958 C17.4755097,27.5360403 17.5449394,27.60547 17.6490839,27.60547 L19.2980387,27.60547 C20.3568413,27.60547 21.2941419,26.7202416 21.2941419,25.6093668 C21.2941419,24.5158494 20.3915561,23.6132636 19.2980387,23.6132636 Z M18.7078864,29.2544248 L17.6490839,29.2544248 C17.5449394,29.2544248 17.4755097,29.3238545 17.4755097,29.427999 L17.4755097,33.7673538 C17.4755097,33.9582854 17.3192929,34.1145022 17.1283613,34.1145022 L16.1737033,34.1145022 C15.9827716,34.1145022 15.8265549,33.9582854 15.8265549,33.7673538 L15.8265549,22.3114572 C15.8265549,22.1205256 15.9827716,21.9643088 16.1737033,21.9643088 L19.2980387,21.9643088 C21.3114993,21.9643088 22.9430967,23.5959062 22.9430967,25.6093668 C22.9430967,26.9285307 22.1967277,28.0914777 21.1379251,28.7163448 C20.8081342,28.9072764 20.6866322,29.0634932 20.842849,29.3759268 L22.8910245,33.5937796 C23.0125264,33.8541409 22.9083819,34.1145022 22.5612335,34.1145022 L21.589218,34.1145022 C21.3114993,34.1145022 21.1899974,33.9756428 21.0858529,33.7673538 L19.0376774,29.4627139 C18.9856052,29.3585693 18.8988181,29.2544248 18.7078864,29.2544248 Z M31.7698014,31.1984558 L31.0060749,33.8541409 C30.9540027,34.0103577 30.8325007,34.1145022 30.676284,34.1145022 L29.7216259,34.1145022 C29.4439072,34.1145022 29.3397627,33.9235706 29.3744775,33.7673538 L32.6029575,22.2246701 C32.6376723,22.0684533 32.7765317,21.9643088 32.9327484,21.9643088 L34.1477678,21.9643088 C34.3039846,21.9643088 34.4428439,22.0684533 34.4775587,22.2246701 L37.7060387,33.7673538 C37.7407535,33.9235706 37.636609,34.1145022 37.3588903,34.1145022 L36.4042323,34.1145022 C36.2480155,34.1145022 36.1265136,34.0103577 36.0744413,33.8541409 L35.3107149,31.1984558 C35.276,31.042239 35.1371407,30.9554519 34.9809239,30.9554519 L32.0995923,30.9554519 C31.9433756,30.9554519 31.8218736,31.042239 31.7698014,31.1984558 Z M33.453471,24.3075604 L32.3252388,29.1502803 C32.2905239,29.2891397 32.3599536,29.3412119 32.4640981,29.3412119 L34.6164181,29.3412119 C34.7205626,29.3412119 34.7899923,29.2891397 34.7552775,29.1502803 L33.6270452,24.3075604 C33.6096878,24.2381307 33.5923304,24.2034159 33.5576155,24.2034159 L33.5229007,24.2034159 C33.4881859,24.2034159 33.4708284,24.2381307 33.453471,24.3075604 Z M46.7931046,28.9072764 C46.7931046,28.8031319 46.8625343,28.7337023 46.9666788,28.7337023 L51.0803872,28.7337023 C51.2713188,28.7337023 51.4275355,28.5774855 51.4275355,28.3865539 L51.4275355,27.4318958 C51.4275355,27.2409642 51.2713188,27.0847474 51.0803872,27.0847474 L46.9666788,27.0847474 C46.8625343,27.0847474 46.7931046,27.0153178 46.7931046,26.9111732 L46.7931046,23.7868378 C46.7931046,23.6826933 46.8625343,23.6132636 46.9666788,23.6132636 L51.2713188,23.6132636 C51.4622504,23.6132636 51.6184672,23.4570468 51.6184672,23.2661152 L51.6184672,22.3114572 C51.6184672,22.1205256 51.4622504,21.9643088 51.2713188,21.9643088 L45.4912982,21.9643088 C45.3003666,21.9643088 45.1441498,22.1205256 45.1441498,22.3114572 L45.1441498,33.7673538 C45.1441498,33.9582854 45.3003666,34.1145022 45.4912982,34.1145022 L46.4459562,34.1145022 C46.6368879,34.1145022 46.7931046,33.9582854 46.7931046,33.7673538 L46.7931046,28.9072764 Z M61.5560466,23.6132636 C61.6601911,23.6132636 61.7296208,23.6826933 61.7296208,23.7868378 L61.7296208,33.7673538 C61.7296208,33.9582854 61.8858376,34.1145022 62.0767692,34.1145022 L63.0314272,34.1145022 C63.2223589,34.1145022 63.3785756,33.9582854 63.3785756,33.7673538 L63.3785756,23.7868378 C63.3785756,23.6826933 63.4480053,23.6132636 63.5521498,23.6132636 L65.8433291,23.6132636 C66.0342608,23.6132636 66.1904775,23.4570468 66.1904775,23.2661152 L66.1904775,22.3114572 C66.1904775,22.1205256 66.0342608,21.9643088 65.8433291,21.9643088 L59.2475099,21.9643088 C59.0565783,21.9643088 58.9003615,22.1205256 58.9003615,22.3114572 L58.9003615,23.2661152 C58.9003615,23.4570468 59.0565783,23.6132636 59.2475099,23.6132636 L61.5560466,23.6132636 Z" id="path3_fill"></path>
                </g>
            </g>
        </g>
    </g>
</svg>