<svg width="154" height="92" viewBox="0 0 154 92" version="1.1" xmlns="http://www.w3.org/2000/svg" xmlns:xlink="http://www.w3.org/1999/xlink">
<title>Group 26 Copy 7</title>
<desc>Created using Figma</desc>
<g id="Canvas" transform="translate(-3150 2219)">
<g id="Group 26 Copy 7">
<g id="Oval Copy 3">
<use xlink:href="#path0_stroke" transform="translate(3151 -2218)" fill="#353535"/>
</g>
<g id="Oval Copy 3">
<use xlink:href="#path1_stroke" transform="translate(3154.48 -2213.01)"/>
</g>
<g id="Group 7">
<g id="FRED WOOD">
<use xlink:href="#path2_fill" transform="translate(3182.89 -2185.42)" fill="#484848"/>
</g>
<g id="CHASE TURN">
<use xlink:href="#path3_fill" transform="translate(3246.69 -2185.54)" fill="#484848"/>
</g>
</g>
</g>
</g>
<defs>
<path id="path0_stroke" d="M 26.1622 0.713939C 26.5565 0.587045 26.7732 0.164535 26.6463 -0.229763C 26.5194 -0.62406 26.0969 -0.840834 25.7026 -0.713939L 26.1622 0.713939ZM -0.687136 23.1531C -0.853138 23.5326 -0.680068 23.9748 -0.300573 24.1408C 0.0789219 24.3068 0.521134 24.1337 0.687136 23.7542L -0.687136 23.1531ZM 25.7026 -0.713939C 13.8614 3.09686 4.24894 11.8688 -0.687136 23.1531L 0.687136 23.7542C 5.45224 12.8608 14.7334 4.39198 26.1622 0.713939L 25.7026 -0.713939Z"/>
<path id="path1_stroke" d="M 42.5163 85.5111C 66.2734 85.5111 85.5325 66.257 85.5325 42.5056L 84.5325 42.5056C 84.5325 65.7045 65.7213 84.5111 42.5163 84.5111L 42.5163 85.5111ZM 85.5325 42.5056C 85.5325 18.7541 66.2734 -0.5 42.5163 -0.5L 42.5163 0.5C 65.7213 0.5 84.5325 19.3066 84.5325 42.5056L 85.5325 42.5056ZM 42.5163 -0.5C 18.7591 -0.5 -0.5 18.7541 -0.5 42.5056L 0.5 42.5056C 0.5 19.3066 19.3112 0.5 42.5163 0.5L 42.5163 -0.5ZM -0.5 42.5056C -0.5 66.257 18.7591 85.5111 42.5163 85.5111L 42.5163 84.5111C 19.3112 84.5111 0.5 65.7045 0.5 42.5056L -0.5 42.5056Z"/>
<path id="path2_fill" fill-rule="evenodd" d="M 2.04144 5.86494C 2.04144 5.7733 2.10189 5.71221 2.19257 5.71221L 6.24282 5.71221C 6.40906 5.71221 6.54507 5.57475 6.54507 5.40674L 6.54507 5.04018C 6.54507 4.87218 6.40906 4.73472 6.24282 4.73472L 2.19257 4.73472C 2.10189 4.73472 2.04144 4.67363 2.04144 4.58199L 2.04144 1.13022C 2.04144 1.03858 2.10189 0.97749 2.19257 0.97749L 6.40906 0.97749C 6.5753 0.97749 6.71132 0.840031 6.71132 0.672025L 6.71132 0.305466C 6.71132 0.13746 6.5753 0 6.40906 0L 1.37648 0C 1.21023 0 1.07422 0.13746 1.07422 0.305466L 1.07422 10.3858C 1.07422 10.5538 1.21023 10.6913 1.37648 10.6913L 1.73918 10.6913C 1.90543 10.6913 2.04144 10.5538 2.04144 10.3858L 2.04144 5.86494ZM 16.4599 0.977539C 17.6689 0.977539 18.6664 1.98558 18.6664 3.20744C 18.6664 4.4293 17.6689 5.43734 16.4599 5.43734L 14.7068 5.43734C 14.6161 5.43734 14.5557 5.37625 14.5557 5.28461L 14.5557 1.13027C 14.5557 1.03863 14.6161 0.977539 14.7068 0.977539L 16.4599 0.977539ZM 16.354 6.41478C 16.5203 6.41478 16.5958 6.50642 16.6412 6.59806L 18.3036 9.836C 18.4698 10.1567 18.5907 10.6913 19.0139 10.6913L 19.3464 10.6913C 19.6486 10.6913 19.7544 10.4622 19.6335 10.2331L 17.7293 6.59806C 17.6084 6.36896 17.6537 6.2315 17.8351 6.10932C 18.9232 5.42202 19.6335 4.58199 19.6335 3.20739C 19.6335 1.43569 18.2129 0 16.4598 0L 13.8906 0C 13.7244 0 13.5884 0.13746 13.5884 0.305466L 13.5884 10.3858C 13.5884 10.5538 13.7244 10.6913 13.8906 10.6913L 14.2533 10.6913C 14.4196 10.6913 14.5556 10.5538 14.5556 10.3858L 14.5556 6.56751C 14.5556 6.47587 14.6161 6.41478 14.7067 6.41478L 16.354 6.41478ZM 27.4911 1.13022C 27.4911 1.03858 27.5516 0.97749 27.6423 0.97749L 31.8588 0.97749C 32.025 0.97749 32.161 0.840031 32.161 0.672025L 32.161 0.305466C 32.161 0.13746 32.025 0 31.8588 0L 26.8262 0C 26.6599 0 26.5239 0.13746 26.5239 0.305466L 26.5239 10.3858C 26.5239 10.5538 26.6599 10.6913 26.8262 10.6913L 31.889 10.6913C 32.0552 10.6913 32.1912 10.5538 32.1912 10.3858L 32.1912 10.0193C 32.1912 9.85127 32.0552 9.71381 31.889 9.71381L 27.6423 9.71381C 27.5516 9.71381 27.4911 9.65272 27.4911 9.56108L 27.4911 5.86494C 27.4911 5.7733 27.5516 5.71221 27.6423 5.71221L 31.6925 5.71221C 31.8588 5.71221 31.9948 5.57475 31.9948 5.40674L 31.9948 5.05546C 31.9948 4.88745 31.8588 4.74999 31.6925 4.74999L 27.6423 4.74999C 27.5516 4.74999 27.4911 4.6889 27.4911 4.59726L 27.4911 1.13022ZM 41.849 10.6913C 43.6625 10.6913 44.9622 9.6069 45.2192 7.63664C 45.3854 6.39951 45.3854 4.27652 45.2192 3.05466C 44.9925 1.38987 43.8439 0 41.849 0L 39.1287 0C 38.9624 0 38.8264 0.13746 38.8264 0.305466L 38.8264 10.3858C 38.8264 10.5538 38.9624 10.6913 39.1287 10.6913L 41.849 10.6913ZM 39.9443 9.71386C 39.8537 9.71386 39.7932 9.65277 39.7932 9.56113L 39.7932 1.13027C 39.7932 1.03863 39.8537 0.977539 39.9443 0.977539L 41.8486 0.977539C 43.2843 0.977539 44.0399 1.93976 44.2062 3.05471C 44.3875 4.30712 44.3875 6.38428 44.2062 7.63669C 44.0853 8.52254 43.4808 9.71386 41.8486 9.71386L 39.9443 9.71386ZM 4.50548 22.3753C 4.47525 22.2226 4.35435 22.1462 4.21833 22.1462L 3.34179 22.1462C 3.20577 22.1462 3.08487 22.2226 3.05464 22.3753L 2.13276 27.0337C 2.11765 27.1253 1.96652 27.1253 1.95141 27.0337L 1.33178 19.3207C 1.31667 19.1526 1.18065 19.0916 1.04463 19.0916L 0.304105 19.0916C 0.0622989 19.0916 -0.0132653 19.2443 0.00184751 19.397L 0.953958 29.5538C 0.96907 29.7065 1.10509 29.7829 1.2411 29.7829L 2.61637 29.7829C 2.75239 29.7829 2.87329 29.7065 2.90352 29.5538L 3.74984 24.9412C 3.76495 24.8649 3.8254 24.8649 3.84051 24.9412L 4.47525 29.5538C 4.49037 29.7065 4.62638 29.7829 4.7624 29.7829L 6.13767 29.7829C 6.27368 29.7829 6.4097 29.7065 6.42481 29.5538L 7.51294 19.397C 7.52805 19.2443 7.45249 19.0916 7.21068 19.0916L 6.47015 19.0916C 6.33413 19.0916 6.19812 19.1526 6.18301 19.3207L 5.50293 27.0337C 5.48782 27.1253 5.33669 27.1253 5.32157 27.0337L 4.50548 22.3753ZM 16.4899 20.4204C 17.6838 20.4204 18.3337 21.2452 18.4546 22.1463C 18.6208 23.3987 18.6359 25.4759 18.4546 26.7283C 18.3034 27.828 17.5024 28.4542 16.4899 28.4542C 15.3111 28.4542 14.6461 27.6141 14.5252 26.7283C 14.3741 25.4759 14.3741 23.3987 14.5252 22.1463C 14.6612 21.0313 15.5075 20.4204 16.4899 20.4204ZM 16.4896 18.9695C 14.4947 18.9695 13.2856 20.4815 13.0892 22.1463C 12.938 23.3682 12.938 25.4912 13.0892 26.7283C 13.331 28.6986 14.676 29.9052 16.4896 29.9052C 18.4845 29.9052 19.7086 28.4084 19.89 26.7283C 20.026 25.5064 20.0411 23.3682 19.89 22.1463C 19.6482 20.1761 18.3031 18.9695 16.4896 18.9695ZM 29.2147 20.4204C 30.4087 20.4204 31.0585 21.2452 31.1794 22.1463C 31.3456 23.3987 31.3608 25.4759 31.1794 26.7283C 31.0283 27.828 30.2273 28.4542 29.2147 28.4542C 28.0359 28.4542 27.371 27.6141 27.2501 26.7283C 27.0989 25.4759 27.0989 23.3987 27.2501 22.1463C 27.3861 21.0313 28.2324 20.4204 29.2147 20.4204ZM 29.2142 18.9695C 27.2193 18.9695 26.0103 20.4815 25.8138 22.1463C 25.6627 23.3682 25.6627 25.4912 25.8138 26.7283C 26.0556 28.6986 27.4006 29.9052 29.2142 29.9052C 31.2091 29.9052 32.4332 28.4084 32.6146 26.7283C 32.7506 25.5064 32.7657 23.3682 32.6146 22.1463C 32.3728 20.1761 31.0277 18.9695 29.2142 18.9695ZM 42.0301 29.7829C 43.7832 29.7829 45.0074 28.3319 45.2038 26.5755C 45.3399 25.3536 45.355 23.5208 45.2038 22.2989C 44.9923 20.5272 43.7832 19.0916 42.0301 19.0916L 39.1587 19.0916C 38.9925 19.0916 38.8564 19.229 38.8564 19.397L 38.8564 29.4774C 38.8564 29.6454 38.9925 29.7829 39.1587 29.7829L 42.0301 29.7829ZM 40.4434 28.3321C 40.3527 28.3321 40.2922 28.271 40.2922 28.1794L 40.2922 20.6955C 40.2922 20.6038 40.3527 20.5427 40.4434 20.5427L 42.0302 20.5427C 42.9521 20.5427 43.6624 21.3828 43.7682 22.2992C 43.9193 23.521 43.9193 25.3538 43.7682 26.5757C 43.6624 27.4921 42.9521 28.3321 42.0302 28.3321L 40.4434 28.3321Z"/>
<path id="path3_fill" fill-rule="evenodd" d="M 5.85245 7.75883C 5.85245 8.65995 5.12704 9.95818 3.49485 9.95818C 1.86266 9.95818 1.25815 8.64468 1.13724 7.75883C 0.955888 6.50642 0.955888 4.42925 1.13724 3.17684C 1.30348 2.06189 2.05913 0.97749 3.49485 0.97749C 4.93057 0.97749 5.85245 2.04662 5.85245 3.17684L 5.85245 3.23794C 5.85245 3.40594 5.98847 3.5434 6.15471 3.5434L 6.56276 3.5434C 6.729 3.5434 6.86502 3.40594 6.86502 3.23794L 6.86502 3.17684C 6.86502 1.49678 5.48975 0 3.49485 0C 1.49995 0 0.351374 1.51206 0.124681 3.17684C -0.0415604 4.39871 -0.0415604 6.52169 0.124681 7.75883C 0.3816 9.72908 1.68131 10.9357 3.49485 10.9357C 5.30839 10.9357 6.86502 9.74436 6.86502 7.75883L 6.86502 7.69774C 6.86502 7.52973 6.729 7.39227 6.56276 7.39227L 6.15471 7.39227C 5.98847 7.39227 5.85245 7.52973 5.85245 7.69774L 5.85245 7.75883ZM 14.028 0.427536C 14.028 0.25953 13.892 0.12207 13.7258 0.12207L 13.363 0.12207C 13.1968 0.12207 13.0608 0.25953 13.0608 0.427536L 13.0608 10.5079C 13.0608 10.6759 13.1968 10.8134 13.363 10.8134L 13.7258 10.8134C 13.892 10.8134 14.028 10.6759 14.028 10.5079L 14.028 5.98701C 14.028 5.89537 14.0885 5.83428 14.1791 5.83428L 18.1387 5.83428C 18.2294 5.83428 18.2898 5.89537 18.2898 5.98701L 18.2898 10.5079C 18.2898 10.6759 18.4259 10.8134 18.5921 10.8134L 18.9548 10.8134C 19.121 10.8134 19.2571 10.6759 19.2571 10.5079L 19.2571 0.427536C 19.2571 0.25953 19.121 0.12207 18.9548 0.12207L 18.5921 0.12207C 18.4259 0.12207 18.2898 0.25953 18.2898 0.427536L 18.2898 4.70406C 18.2898 4.7957 18.2294 4.85679 18.1387 4.85679L 14.1791 4.85679C 14.0885 4.85679 14.028 4.7957 14.028 4.70406L 14.028 0.427536ZM 27.0408 8.00309C 27.0861 7.86563 27.1919 7.78926 27.3279 7.78926L 30.4411 7.78926C 30.5772 7.78926 30.683 7.86563 30.7283 8.00309L 31.4688 10.5843C 31.499 10.7217 31.62 10.8134 31.756 10.8134L 32.1338 10.8134C 32.3756 10.8134 32.4663 10.6454 32.436 10.5079L 29.5495 0.35117C 29.5193 0.21371 29.3984 0.12207 29.2623 0.12207L 28.5067 0.12207C 28.3707 0.12207 28.2498 0.21371 28.2196 0.35117L 25.333 10.5079C 25.3028 10.6454 25.3935 10.8134 25.6353 10.8134L 26.0131 10.8134C 26.1491 10.8134 26.27 10.7217 26.3002 10.5843L 27.0408 8.00309ZM 28.8082 1.48153C 28.8233 1.42044 28.8384 1.38989 28.8686 1.38989L 28.8989 1.38989C 28.9291 1.38989 28.9442 1.42044 28.9593 1.48153L 30.3346 6.67445C 30.3648 6.79664 30.3044 6.84246 30.2137 6.84246L 27.5538 6.84246C 27.4631 6.84246 27.4027 6.79664 27.4329 6.67445L 28.8082 1.48153ZM 43.8761 7.75883C 43.8609 9.05706 42.9844 9.95818 41.6091 9.95818C 40.113 9.95818 39.3422 8.82796 39.3422 7.75883L 39.3422 7.51446C 39.3422 7.34645 39.2062 7.20899 39.0399 7.20899L 38.6621 7.20899C 38.4959 7.20899 38.3599 7.34645 38.3599 7.51446L 38.3599 7.75883C 38.3599 9.49999 39.6596 10.9357 41.6091 10.9357C 43.3169 10.9357 44.8584 9.75963 44.8584 7.75883C 44.8584 5.88022 43.7249 5.20819 42.0927 4.70417C 41.05 4.38343 39.6293 4.24597 39.6293 2.87138C 39.6293 1.92443 40.2641 0.97749 41.6091 0.97749C 42.7426 0.97749 43.5889 1.7717 43.5889 2.87138L 43.5889 3.06993C 43.5889 3.23794 43.7249 3.3754 43.8912 3.3754L 44.2539 3.3754C 44.4201 3.3754 44.5561 3.23794 44.5561 3.06993L 44.5561 2.87138C 44.5561 1.29823 43.3924 0 41.6091 0C 40.0525 0 38.647 1.03858 38.647 2.87138C 38.647 4.65835 40.0827 5.23874 41.186 5.49838C 42.9088 5.91076 43.8912 6.36896 43.8761 7.75883ZM 52.612 1.25229C 52.612 1.16065 52.6724 1.09956 52.7631 1.09956L 56.9796 1.09956C 57.1459 1.09956 57.2819 0.962101 57.2819 0.794095L 57.2819 0.427536C 57.2819 0.25953 57.1459 0.12207 56.9796 0.12207L 51.947 0.12207C 51.7808 0.12207 51.6448 0.25953 51.6448 0.427536L 51.6448 10.5079C 51.6448 10.6759 51.7808 10.8134 51.947 10.8134L 57.0098 10.8134C 57.1761 10.8134 57.3121 10.6759 57.3121 10.5079L 57.3121 10.1413C 57.3121 9.97334 57.1761 9.83588 57.0098 9.83588L 52.7631 9.83588C 52.6724 9.83588 52.612 9.77479 52.612 9.68315L 52.612 5.98701C 52.612 5.89537 52.6724 5.83428 52.7631 5.83428L 56.8134 5.83428C 56.9796 5.83428 57.1156 5.69682 57.1156 5.52881L 57.1156 5.17753C 57.1156 5.00952 56.9796 4.87206 56.8134 4.87206L 52.7631 4.87206C 52.6724 4.87206 52.612 4.81097 52.612 4.71933L 52.612 1.25229ZM 2.57277 20.6646C 2.66344 20.6646 2.72389 20.7257 2.72389 20.8173L 2.72389 29.5995C 2.72389 29.7675 2.85991 29.9049 3.02615 29.9049L 3.85736 29.9049C 4.0236 29.9049 4.15962 29.7675 4.15962 29.5995L 4.15962 20.8173C 4.15962 20.7257 4.22007 20.6646 4.31074 20.6646L 6.30564 20.6646C 6.47188 20.6646 6.6079 20.5271 6.6079 20.3591L 6.6079 19.5191C 6.6079 19.3511 6.47188 19.2136 6.30564 19.2136L 0.562755 19.2136C 0.396514 19.2136 0.260498 19.3511 0.260498 19.5191L 0.260498 20.3591C 0.260498 20.5271 0.396514 20.6646 0.562755 20.6646L 2.57277 20.6646ZM 14.195 19.5191C 14.195 19.3511 14.059 19.2136 13.8927 19.2136L 13.0615 19.2136C 12.8953 19.2136 12.7593 19.3511 12.7593 19.5191L 12.7593 26.8503C 12.7593 28.6831 14.2101 30.0271 16.1597 30.0271C 17.9883 30.0271 19.5601 28.6831 19.5601 26.8503L 19.5601 19.5191C 19.5601 19.3511 19.424 19.2136 19.2578 19.2136L 18.4266 19.2136C 18.2604 19.2136 18.1243 19.3511 18.1243 19.5191L 18.1243 26.8503C 18.1243 27.8278 17.3082 28.5761 16.1597 28.5761C 15.1773 28.5761 14.195 28.0721 14.195 26.8503L 14.195 19.5191ZM 29.1113 20.6648C 30.0634 20.6648 30.8492 21.459 30.8492 22.4212C 30.8492 23.3987 30.0331 24.1777 29.1113 24.1777L 27.6755 24.1777C 27.5849 24.1777 27.5244 24.1166 27.5244 24.0249L 27.5244 20.8175C 27.5244 20.7259 27.5849 20.6648 27.6755 20.6648L 29.1113 20.6648ZM 28.5974 25.6284C 28.7636 25.6284 28.8392 25.72 28.8845 25.8117L 30.6678 29.5995C 30.7585 29.7827 30.8643 29.9049 31.1061 29.9049L 31.9524 29.9049C 32.2547 29.9049 32.3453 29.6758 32.2396 29.4467L 30.4562 25.7353C 30.3202 25.4604 30.426 25.3229 30.7132 25.1549C 31.635 24.6051 32.2849 23.5818 32.2849 22.421C 32.2849 20.6493 30.8643 19.2136 29.1112 19.2136L 26.3909 19.2136C 26.2246 19.2136 26.0886 19.3511 26.0886 19.5191L 26.0886 29.5995C 26.0886 29.7675 26.2246 29.9049 26.3909 29.9049L 27.2221 29.9049C 27.3883 29.9049 27.5243 29.7675 27.5243 29.5995L 27.5243 25.7811C 27.5243 25.6895 27.5848 25.6284 27.6755 25.6284L 28.5974 25.6284ZM 44.7825 19.5191C 44.7825 19.3511 44.6464 19.2136 44.4802 19.2136L 43.7094 19.2136C 43.5432 19.2136 43.4072 19.3511 43.4072 19.5191L 43.4072 26.9725C 43.4072 27.0488 43.3165 27.0641 43.2863 27.003L 40.3091 19.4733C 40.2335 19.2594 40.1579 19.2136 39.9917 19.2136L 38.7373 19.2136C 38.5711 19.2136 38.4351 19.3511 38.4351 19.5191L 38.4351 29.5995C 38.4351 29.7675 38.5711 29.9049 38.7373 29.9049L 39.5081 29.9049C 39.6743 29.9049 39.8103 29.7675 39.8103 29.5995L 39.8103 22.1155C 39.8103 22.0392 39.901 22.0239 39.9312 22.085L 42.9085 29.6453C 42.984 29.8591 43.0596 29.9049 43.2258 29.9049L 44.4802 29.9049C 44.6464 29.9049 44.7825 29.7675 44.7825 29.5995L 44.7825 19.5191Z"/>
</defs>
</svg>
