<svg width="182" height="112" viewBox="0 0 182 112" version="1.1" xmlns="http://www.w3.org/2000/svg" xmlns:xlink="http://www.w3.org/1999/xlink">
<title>Group 26 Copy 7</title>
<desc>Created using Figma</desc>
<g id="Canvas" transform="translate(-104 2180)">
<g id="Group 26 Copy 7">
<g id="Oval Copy 3">
<use xlink:href="#path0_stroke" transform="translate(105 -2179)" fill="#FFFFFF"/>
</g>
<g id="Oval Copy 3">
<use xlink:href="#path1_stroke" transform="translate(109.258 -2172.9)" fill="#FFFFFF"/>
</g>
<g id="FRED WOOD">
<use xlink:href="#path2_fill" transform="translate(148.35 -2137.7)" fill="#FFFFFF"/>
</g>
<g id="CHASE TURN">
<use xlink:href="#path3_fill" transform="translate(220.864 -2137.83)" fill="#FFFFFF"/>
</g>
</g>
</g>
<defs>
<path id="path0_stroke" d="M 31.9209 0.713931C 32.3152 0.587022 32.532 0.164504 32.4051 -0.229789C 32.2782 -0.624082 31.8557 -0.84084 31.4614 -0.713931L 31.9209 0.713931ZM -0.68715 28.365C -0.853134 28.7445 -0.680044 29.1867 -0.300541 29.3527C 0.078961 29.5187 0.521165 29.3456 0.68715 28.9661L -0.68715 28.365ZM 31.4614 -0.713931C 17.0363 3.92897 5.32607 14.6165 -0.68715 28.365L 0.68715 28.9661C 6.52943 15.6084 17.9084 5.22405 31.9209 0.713931L 31.4614 -0.713931Z"/>
<path id="path1_stroke" d="M 51.9577 104.652C 81.0673 104.652 104.665 81.0573 104.665 51.9512L 103.165 51.9512C 103.165 80.2287 80.2391 103.152 51.9577 103.152L 51.9577 104.652ZM 104.665 51.9512C 104.665 22.845 81.0673 -0.75 51.9577 -0.75L 51.9577 0.75C 80.2391 0.75 103.165 23.6736 103.165 51.9512L 104.665 51.9512ZM 51.9577 -0.75C 22.8482 -0.75 -0.75 22.845 -0.75 51.9512L 0.75 51.9512C 0.75 23.6736 23.6764 0.75 51.9577 0.75L 51.9577 -0.75ZM -0.75 51.9512C -0.75 81.0573 22.8482 104.652 51.9577 104.652L 51.9577 103.152C 23.6764 103.152 0.75 80.2287 0.75 51.9512L -0.75 51.9512Z"/>
<path id="path2_fill" fill-rule="evenodd" d="M 2.32086 6.59479C 2.32086 6.49175 2.38956 6.42305 2.49262 6.42305L 7.09582 6.42305C 7.28476 6.42305 7.43934 6.26849 7.43934 6.07957L 7.43934 5.6674C 7.43934 5.47849 7.28476 5.32392 7.09582 5.32392L 2.49262 5.32392C 2.38956 5.32392 2.32086 5.25523 2.32086 5.15218L 2.32086 1.27087C 2.32086 1.16783 2.38956 1.09913 2.49262 1.09913L 7.28476 1.09913C 7.47369 1.09913 7.62828 0.944567 7.62828 0.755653L 7.62828 0.343479C 7.62828 0.154565 7.47369 0 7.28476 0L 1.56511 0C 1.37617 0 1.22159 0.154565 1.22159 0.343479L 1.22159 11.6783C 1.22159 11.8672 1.37617 12.0218 1.56511 12.0218L 1.97734 12.0218C 2.16627 12.0218 2.32086 11.8672 2.32086 11.6783L 2.32086 6.59479ZM 18.7069 1.09912C 20.081 1.09912 21.2146 2.2326 21.2146 3.60652C 21.2146 4.98043 20.081 6.11391 18.7069 6.11391L 16.7145 6.11391C 16.6114 6.11391 16.5427 6.04522 16.5427 5.94217L 16.5427 1.27086C 16.5427 1.16782 16.6114 1.09912 16.7145 1.09912L 18.7069 1.09912ZM 18.5867 7.21305C 18.7756 7.21305 18.8615 7.3161 18.913 7.41914L 20.8024 11.06C 20.9913 11.4207 21.1287 12.0218 21.6097 12.0218L 21.9875 12.0218C 22.3311 12.0218 22.4513 11.7641 22.3139 11.5065L 20.1497 7.41914C 20.0123 7.16153 20.0638 7.00697 20.2699 6.86958C 21.5066 6.09675 22.3139 5.15218 22.3139 3.60653C 22.3139 1.61435 20.6993 0 18.7069 0L 15.787 0C 15.598 0 15.4434 0.154565 15.4434 0.343479L 15.4434 11.6783C 15.4434 11.8672 15.598 12.0218 15.787 12.0218L 16.1992 12.0218C 16.3881 12.0218 16.5427 11.8672 16.5427 11.6783L 16.5427 7.38479C 16.5427 7.28175 16.6114 7.21305 16.7145 7.21305L 18.5867 7.21305ZM 31.2455 1.27087C 31.2455 1.16783 31.3142 1.09913 31.4172 1.09913L 36.2093 1.09913C 36.3983 1.09913 36.5529 0.944567 36.5529 0.755653L 36.5529 0.343479C 36.5529 0.154565 36.3983 0 36.2093 0L 30.4897 0C 30.3008 0 30.1462 0.154565 30.1462 0.343479L 30.1462 11.6783C 30.1462 11.8672 30.3008 12.0218 30.4897 12.0218L 36.2437 12.0218C 36.4326 12.0218 36.5872 11.8672 36.5872 11.6783L 36.5872 11.2661C 36.5872 11.0772 36.4326 10.9226 36.2437 10.9226L 31.4172 10.9226C 31.3142 10.9226 31.2455 10.8539 31.2455 10.7509L 31.2455 6.59479C 31.2455 6.49175 31.3142 6.42305 31.4172 6.42305L 36.0204 6.42305C 36.2093 6.42305 36.3639 6.26849 36.3639 6.07957L 36.3639 5.68457C 36.3639 5.49566 36.2093 5.34109 36.0204 5.34109L 31.4172 5.34109C 31.3142 5.34109 31.2455 5.2724 31.2455 5.16936L 31.2455 1.27087ZM 47.5628 12.0218C 49.6239 12.0218 51.101 10.8024 51.393 8.58697C 51.582 7.19588 51.582 4.8087 51.393 3.43479C 51.1354 1.56283 49.83 0 47.5628 0L 44.4711 0C 44.2821 0 44.1275 0.154565 44.1275 0.343479L 44.1275 11.6783C 44.1275 11.8672 44.2821 12.0218 44.4711 12.0218L 47.5628 12.0218ZM 45.3986 10.9226C 45.2955 10.9226 45.2268 10.8539 45.2268 10.7509L 45.2268 1.27086C 45.2268 1.16782 45.2955 1.09912 45.3986 1.09912L 47.5628 1.09912C 49.1945 1.09912 50.0533 2.18108 50.2422 3.43478C 50.4483 4.84304 50.4483 7.1787 50.2422 8.58696C 50.1048 9.58305 49.4178 10.9226 47.5628 10.9226L 45.3986 10.9226ZM 5.12058 25.1599C 5.08623 24.9882 4.94882 24.9023 4.79424 24.9023L 3.79802 24.9023C 3.64344 24.9023 3.50603 24.9882 3.47167 25.1599L 2.42393 30.398C 2.40676 30.501 2.23499 30.501 2.21782 30.398L 1.5136 21.7251C 1.49642 21.5362 1.34184 21.4675 1.18725 21.4675L 0.345622 21.4675C 0.0708042 21.4675 -0.0150764 21.6393 0.00209974 21.811L 1.08419 33.2317C 1.10137 33.4034 1.25596 33.4893 1.41054 33.4893L 2.97357 33.4893C 3.12815 33.4893 3.26556 33.4034 3.29991 33.2317L 4.26178 28.0451C 4.27895 27.9593 4.34766 27.9593 4.36483 28.0451L 5.08623 33.2317C 5.10341 33.4034 5.25799 33.4893 5.41258 33.4893L 6.9756 33.4893C 7.13019 33.4893 7.28477 33.4034 7.30195 33.2317L 8.53863 21.811C 8.5558 21.6393 8.46992 21.4675 8.19511 21.4675L 7.35348 21.4675C 7.19889 21.4675 7.04431 21.5362 7.02713 21.7251L 6.2542 30.398C 6.23703 30.501 6.06527 30.501 6.04809 30.398L 5.12058 25.1599ZM 18.7412 22.9617C 20.0981 22.9617 20.8367 23.8891 20.9741 24.9023C 21.1631 26.3106 21.1802 28.6462 20.9741 30.0545C 20.8024 31.291 19.892 31.9952 18.7412 31.9952C 17.4015 31.9952 16.6457 31.0506 16.5083 30.0545C 16.3366 28.6462 16.3366 26.3106 16.5083 24.9023C 16.6629 23.6486 17.6248 22.9617 18.7412 22.9617ZM 18.7412 21.3301C 16.474 21.3301 15.0999 23.0303 14.8766 24.9023C 14.7048 26.2762 14.7048 28.6633 14.8766 30.0544C 15.1514 32.2699 16.6801 33.6266 18.7412 33.6266C 21.0085 33.6266 22.3997 31.9436 22.6059 30.0544C 22.7604 28.6805 22.7776 26.2762 22.6059 24.9023C 22.331 22.6868 20.8024 21.3301 18.7412 21.3301ZM 33.2035 22.9617C 34.5604 22.9617 35.299 23.8891 35.4364 24.9023C 35.6254 26.3106 35.6425 28.6462 35.4364 30.0545C 35.2647 31.291 34.3543 31.9952 33.2035 31.9952C 31.8638 31.9952 31.108 31.0506 30.9706 30.0545C 30.7989 28.6462 30.7989 26.3106 30.9706 24.9023C 31.1252 23.6486 32.0871 22.9617 33.2035 22.9617ZM 33.2035 21.3301C 30.9363 21.3301 29.5622 23.0303 29.3389 24.9023C 29.1671 26.2762 29.1671 28.6633 29.3389 30.0544C 29.6137 32.2699 31.1424 33.6266 33.2035 33.6266C 35.4708 33.6266 36.862 31.9436 37.0681 30.0544C 37.2227 28.6805 37.2399 26.2762 37.0681 24.9023C 36.7933 22.6868 35.2646 21.3301 33.2035 21.3301ZM 47.7689 33.4893C 49.7613 33.4893 51.1526 31.8578 51.3759 29.8828C 51.5304 28.5088 51.5476 26.448 51.3759 25.0741C 51.1354 23.0819 49.7613 21.4675 47.7689 21.4675L 44.5054 21.4675C 44.3165 21.4675 44.1619 21.6221 44.1619 21.811L 44.1619 33.1458C 44.1619 33.3347 44.3165 33.4893 44.5054 33.4893L 47.7689 33.4893ZM 45.9654 31.8576C 45.8623 31.8576 45.7936 31.7889 45.7936 31.6858L 45.7936 23.2706C 45.7936 23.1676 45.8623 23.0989 45.9654 23.0989L 47.7689 23.0989C 48.8166 23.0989 49.6239 24.0434 49.7441 25.0739C 49.9159 26.4478 49.9159 28.5087 49.7441 29.8826C 49.6239 30.913 48.8166 31.8576 47.7689 31.8576L 45.9654 31.8576Z"/>
<path id="path3_fill" fill-rule="evenodd" d="M 6.65145 8.72436C 6.65145 9.73762 5.827 11.1974 3.97198 11.1974C 2.11696 11.1974 1.42991 9.72045 1.2925 8.72436C 1.08639 7.3161 1.08639 4.98044 1.2925 3.57218C 1.48144 2.31848 2.34025 1.09913 3.97198 1.09913C 5.60371 1.09913 6.65145 2.30131 6.65145 3.57218L 6.65145 3.64087C 6.65145 3.82979 6.80603 3.98435 6.99497 3.98435L 7.45873 3.98435C 7.64766 3.98435 7.80225 3.82979 7.80225 3.64087L 7.80225 3.57218C 7.80225 1.68305 6.23922 0 3.97198 0C 1.70473 0 0.399345 1.70022 0.141703 3.57218C -0.0472343 4.94609 -0.0472343 7.33327 0.141703 8.72436C 0.433697 10.9398 1.91084 12.2965 3.97198 12.2965C 6.03311 12.2965 7.80225 10.957 7.80225 8.72436L 7.80225 8.65567C 7.80225 8.46675 7.64766 8.31219 7.45873 8.31219L 6.99497 8.31219C 6.80603 8.31219 6.65145 8.46675 6.65145 8.65567L 6.65145 8.72436ZM 15.9437 0.48093C 15.9437 0.292017 15.7892 0.137451 15.6002 0.137451L 15.188 0.137451C 14.9991 0.137451 14.8445 0.292017 14.8445 0.48093L 14.8445 11.8157C 14.8445 12.0046 14.9991 12.1592 15.188 12.1592L 15.6002 12.1592C 15.7892 12.1592 15.9437 12.0046 15.9437 11.8157L 15.9437 6.73224C 15.9437 6.6292 16.0124 6.5605 16.1155 6.5605L 20.6156 6.5605C 20.7187 6.5605 20.7874 6.6292 20.7874 6.73224L 20.7874 11.8157C 20.7874 12.0046 20.942 12.1592 21.1309 12.1592L 21.5432 12.1592C 21.7321 12.1592 21.8867 12.0046 21.8867 11.8157L 21.8867 0.48093C 21.8867 0.292017 21.7321 0.137451 21.5432 0.137451L 21.1309 0.137451C 20.942 0.137451 20.7874 0.292017 20.7874 0.48093L 20.7874 5.28963C 20.7874 5.39268 20.7187 5.46137 20.6156 5.46137L 16.1155 5.46137C 16.0124 5.46137 15.9437 5.39268 15.9437 5.28963L 15.9437 0.48093ZM 30.7324 8.9992C 30.7839 8.84464 30.9041 8.75877 31.0587 8.75877L 34.597 8.75877C 34.7516 8.75877 34.8718 8.84464 34.9233 8.9992L 35.765 11.9016C 35.7993 12.0562 35.9367 12.1592 36.0913 12.1592L 36.5207 12.1592C 36.7955 12.1592 36.8986 11.9703 36.8642 11.8157L 33.5836 0.39506C 33.5493 0.240495 33.4118 0.137451 33.2573 0.137451L 32.3985 0.137451C 32.2439 0.137451 32.1065 0.240495 32.0721 0.39506L 28.7915 11.8157C 28.7571 11.9703 28.8602 12.1592 29.135 12.1592L 29.5644 12.1592C 29.719 12.1592 29.8564 12.0562 29.8907 11.9016L 30.7324 8.9992ZM 32.742 1.66603C 32.7592 1.59734 32.7763 1.56299 32.8107 1.56299L 32.845 1.56299C 32.8794 1.56299 32.8966 1.59734 32.9137 1.66603L 34.4768 7.50517C 34.5111 7.64256 34.4424 7.69408 34.3394 7.69408L 31.3164 7.69408C 31.2133 7.69408 31.1446 7.64256 31.1789 7.50517L 32.742 1.66603ZM 49.8665 8.72436C 49.8494 10.1841 48.8531 11.1974 47.2901 11.1974C 45.5897 11.1974 44.7137 9.92654 44.7137 8.72436L 44.7137 8.44958C 44.7137 8.26066 44.5591 8.1061 44.3702 8.1061L 43.9408 8.1061C 43.7518 8.1061 43.5973 8.26066 43.5973 8.44958L 43.5973 8.72436C 43.5973 10.6822 45.0744 12.2965 47.2901 12.2965C 49.231 12.2965 50.983 10.9741 50.983 8.72436C 50.983 6.61197 49.6948 5.85631 47.8398 5.28957C 46.6546 4.92892 45.0401 4.77435 45.0401 3.2287C 45.0401 2.16392 45.7615 1.09913 47.2901 1.09913C 48.5783 1.09913 49.5402 1.99218 49.5402 3.2287L 49.5402 3.45196C 49.5402 3.64088 49.6948 3.79544 49.8837 3.79544L 50.2959 3.79544C 50.4849 3.79544 50.6395 3.64088 50.6395 3.45196L 50.6395 3.2287C 50.6395 1.45978 49.3169 0 47.2901 0C 45.521 0 43.9236 1.16783 43.9236 3.2287C 43.9236 5.23805 45.5553 5.89066 46.8092 6.18262C 48.7673 6.64631 49.8837 7.16153 49.8665 8.72436ZM 59.7943 1.40832C 59.7943 1.30528 59.863 1.23658 59.9661 1.23658L 64.7582 1.23658C 64.9472 1.23658 65.1018 1.08202 65.1018 0.893104L 65.1018 0.48093C 65.1018 0.292017 64.9472 0.137451 64.7582 0.137451L 59.0386 0.137451C 58.8497 0.137451 58.6951 0.292017 58.6951 0.48093L 58.6951 11.8157C 58.6951 12.0046 58.8497 12.1592 59.0386 12.1592L 64.7926 12.1592C 64.9815 12.1592 65.1361 12.0046 65.1361 11.8157L 65.1361 11.4036C 65.1361 11.2146 64.9815 11.0601 64.7926 11.0601L 59.9661 11.0601C 59.863 11.0601 59.7943 10.9914 59.7943 10.8883L 59.7943 6.73224C 59.7943 6.6292 59.863 6.5605 59.9661 6.5605L 64.5693 6.5605C 64.7582 6.5605 64.9128 6.40594 64.9128 6.21703L 64.9128 5.82203C 64.9128 5.63311 64.7582 5.47855 64.5693 5.47855L 59.9661 5.47855C 59.863 5.47855 59.7943 5.40985 59.7943 5.30681L 59.7943 1.40832ZM 2.92424 23.2363C 3.0273 23.2363 3.096 23.305 3.096 23.408L 3.096 33.283C 3.096 33.4719 3.25059 33.6265 3.43952 33.6265L 4.38421 33.6265C 4.57315 33.6265 4.72773 33.4719 4.72773 33.283L 4.72773 23.408C 4.72773 23.305 4.79644 23.2363 4.89949 23.2363L 7.16674 23.2363C 7.35568 23.2363 7.51026 23.0817 7.51026 22.8928L 7.51026 21.9482C 7.51026 21.7593 7.35568 21.6047 7.16674 21.6047L 0.639817 21.6047C 0.45088 21.6047 0.296295 21.7593 0.296295 21.9482L 0.296295 22.8928C 0.296295 23.0817 0.45088 23.2363 0.639817 23.2363L 2.92424 23.2363ZM 16.1327 21.9482C 16.1327 21.7593 15.9781 21.6047 15.7891 21.6047L 14.8445 21.6047C 14.6555 21.6047 14.5009 21.7593 14.5009 21.9482L 14.5009 30.1917C 14.5009 32.2526 16.1498 33.7639 18.3656 33.7639C 20.4439 33.7639 22.2302 32.2526 22.2302 30.1917L 22.2302 21.9482C 22.2302 21.7593 22.0756 21.6047 21.8867 21.6047L 20.942 21.6047C 20.753 21.6047 20.5985 21.7593 20.5985 21.9482L 20.5985 30.1917C 20.5985 31.2908 19.6709 32.1324 18.3656 32.1324C 17.2491 32.1324 16.1327 31.5656 16.1327 30.1917L 16.1327 21.9482ZM 33.0855 23.2363C 34.1676 23.2363 35.0607 24.1294 35.0607 25.2113C 35.0607 26.3105 34.1332 27.1863 33.0855 27.1863L 31.4538 27.1863C 31.3507 27.1863 31.282 27.1176 31.282 27.0146L 31.282 23.4081C 31.282 23.305 31.3507 23.2363 31.4538 23.2363L 33.0855 23.2363ZM 32.5015 28.8178C 32.6904 28.8178 32.7763 28.9208 32.8279 29.0239L 34.8546 33.283C 34.9577 33.4891 35.0779 33.6265 35.3527 33.6265L 36.3146 33.6265C 36.6581 33.6265 36.7612 33.3689 36.6409 33.1113L 34.6142 28.938C 34.4596 28.6289 34.5798 28.4743 34.9062 28.2854C 35.9539 27.6671 36.6925 26.5165 36.6925 25.2113C 36.6925 23.2191 35.0779 21.6047 33.0855 21.6047L 29.9938 21.6047C 29.8049 21.6047 29.6503 21.7593 29.6503 21.9482L 29.6503 33.283C 29.6503 33.4719 29.8049 33.6265 29.9938 33.6265L 30.9385 33.6265C 31.1274 33.6265 31.282 33.4719 31.282 33.283L 31.282 28.9895C 31.282 28.8865 31.3507 28.8178 31.4538 28.8178L 32.5015 28.8178ZM 50.8971 21.9482C 50.8971 21.7593 50.7425 21.6047 50.5536 21.6047L 49.6776 21.6047C 49.4887 21.6047 49.3341 21.7593 49.3341 21.9482L 49.3341 30.3291C 49.3341 30.415 49.2311 30.4321 49.1967 30.3634L 45.813 21.8967C 45.7271 21.6563 45.6412 21.6047 45.4523 21.6047L 44.0267 21.6047C 43.8378 21.6047 43.6832 21.7593 43.6832 21.9482L 43.6832 33.283C 43.6832 33.4719 43.8378 33.6265 44.0267 33.6265L 44.9027 33.6265C 45.0916 33.6265 45.2462 33.4719 45.2462 33.283L 45.2462 24.8678C 45.2462 24.7819 45.3493 24.7647 45.3836 24.8334L 48.7673 33.3345C 48.8532 33.575 48.9391 33.6265 49.128 33.6265L 50.5536 33.6265C 50.7425 33.6265 50.8971 33.4719 50.8971 33.283L 50.8971 21.9482Z"/>
</defs>
</svg>
