<?xml version="1.0" encoding="UTF-8"?>
<svg width="155px" height="92px" viewBox="0 0 155 92" version="1.1" xmlns="http://www.w3.org/2000/svg" xmlns:xlink="http://www.w3.org/1999/xlink">
    <!-- Generator: Sketch 46.2 (44496) - http://www.bohemiancoding.com/sketch -->
    <title>logo</title>
    <desc>Created with Sketch.</desc>
    <defs></defs>
    <g id="Page-1" stroke="none" stroke-width="1" fill="none" fill-rule="evenodd">
        <g id="logo" fill-rule="nonzero">
            <g id="Oval-Copy-3" fill="#353535">
                <g id="path0_stroke-link">
                    <path d="M27.1622,1.713939 C27.5565,1.587045 27.7732,1.164535 27.6463,0.770237 C27.5194,0.37594 27.0969,0.159166 26.7026,0.286061 L27.1622,1.713939 Z M0.312864,24.1531 C0.146862,24.5326 0.319932,24.9748 0.699427,25.1408 C1.0789219,25.3068 1.521134,25.1337 1.687136,24.7542 L0.312864,24.1531 Z M26.7026,0.286061 C14.8614,4.09686 5.24894,12.8688 0.312864,24.1531 L1.687136,24.7542 C6.45224,13.8608 15.7334,5.39198 27.1622,1.713939 L26.7026,0.286061 Z" id="path0_stroke"></path>
                </g>
            </g>
            <g id="Oval-Copy-3" transform="translate(3.000000, 4.000000)" fill="#000000">
                <g id="path1_stroke-link" transform="translate(0.480000, 0.990000)">
                    <path d="M43.5163,86.5111 C67.2734,86.5111 86.5325,67.257 86.5325,43.5056 L85.5325,43.5056 C85.5325,66.7045 66.7213,85.5111 43.5163,85.5111 L43.5163,86.5111 Z M86.5325,43.5056 C86.5325,19.7541 67.2734,0.5 43.5163,0.5 L43.5163,1.5 C66.7213,1.5 85.5325,20.3066 85.5325,43.5056 L86.5325,43.5056 Z M43.5163,0.5 C19.7591,0.5 0.5,19.7541 0.5,43.5056 L1.5,43.5056 C1.5,20.3066 20.3112,1.5 43.5163,1.5 L43.5163,0.5 Z M0.5,43.5056 C0.5,67.257 19.7591,86.5111 43.5163,86.5111 L43.5163,85.5111 C20.3112,85.5111 1.5,66.7045 1.5,43.5056 L0.5,43.5056 Z" id="path1_stroke"></path>
                </g>
            </g>
            <g id="Group-7" transform="translate(32.000000, 33.000000)" fill="#484848">
                <g id="FRED-WOOD">
                    <g id="path2_fill-link" transform="translate(0.890000, 0.580000)">
                        <path d="M2.04144,5.86494 C2.04144,5.7733 2.10189,5.71221 2.19257,5.71221 L6.24282,5.71221 C6.40906,5.71221 6.54507,5.57475 6.54507,5.40674 L6.54507,5.04018 C6.54507,4.87218 6.40906,4.73472 6.24282,4.73472 L2.19257,4.73472 C2.10189,4.73472 2.04144,4.67363 2.04144,4.58199 L2.04144,1.13022 C2.04144,1.03858 2.10189,0.97749 2.19257,0.97749 L6.40906,0.97749 C6.5753,0.97749 6.71132,0.840031 6.71132,0.672025 L6.71132,0.305466 C6.71132,0.13746 6.5753,0 6.40906,0 L1.37648,0 C1.21023,0 1.07422,0.13746 1.07422,0.305466 L1.07422,10.3858 C1.07422,10.5538 1.21023,10.6913 1.37648,10.6913 L1.73918,10.6913 C1.90543,10.6913 2.04144,10.5538 2.04144,10.3858 L2.04144,5.86494 Z M16.4599,0.977539 C17.6689,0.977539 18.6664,1.98558 18.6664,3.20744 C18.6664,4.4293 17.6689,5.43734 16.4599,5.43734 L14.7068,5.43734 C14.6161,5.43734 14.5557,5.37625 14.5557,5.28461 L14.5557,1.13027 C14.5557,1.03863 14.6161,0.977539 14.7068,0.977539 L16.4599,0.977539 Z M16.354,6.41478 C16.5203,6.41478 16.5958,6.50642 16.6412,6.59806 L18.3036,9.836 C18.4698,10.1567 18.5907,10.6913 19.0139,10.6913 L19.3464,10.6913 C19.6486,10.6913 19.7544,10.4622 19.6335,10.2331 L17.7293,6.59806 C17.6084,6.36896 17.6537,6.2315 17.8351,6.10932 C18.9232,5.42202 19.6335,4.58199 19.6335,3.20739 C19.6335,1.43569 18.2129,0 16.4598,0 L13.8906,0 C13.7244,0 13.5884,0.13746 13.5884,0.305466 L13.5884,10.3858 C13.5884,10.5538 13.7244,10.6913 13.8906,10.6913 L14.2533,10.6913 C14.4196,10.6913 14.5556,10.5538 14.5556,10.3858 L14.5556,6.56751 C14.5556,6.47587 14.6161,6.41478 14.7067,6.41478 L16.354,6.41478 Z M27.4911,1.13022 C27.4911,1.03858 27.5516,0.97749 27.6423,0.97749 L31.8588,0.97749 C32.025,0.97749 32.161,0.840031 32.161,0.672025 L32.161,0.305466 C32.161,0.13746 32.025,0 31.8588,0 L26.8262,0 C26.6599,0 26.5239,0.13746 26.5239,0.305466 L26.5239,10.3858 C26.5239,10.5538 26.6599,10.6913 26.8262,10.6913 L31.889,10.6913 C32.0552,10.6913 32.1912,10.5538 32.1912,10.3858 L32.1912,10.0193 C32.1912,9.85127 32.0552,9.71381 31.889,9.71381 L27.6423,9.71381 C27.5516,9.71381 27.4911,9.65272 27.4911,9.56108 L27.4911,5.86494 C27.4911,5.7733 27.5516,5.71221 27.6423,5.71221 L31.6925,5.71221 C31.8588,5.71221 31.9948,5.57475 31.9948,5.40674 L31.9948,5.05546 C31.9948,4.88745 31.8588,4.74999 31.6925,4.74999 L27.6423,4.74999 C27.5516,4.74999 27.4911,4.6889 27.4911,4.59726 L27.4911,1.13022 Z M41.849,10.6913 C43.6625,10.6913 44.9622,9.6069 45.2192,7.63664 C45.3854,6.39951 45.3854,4.27652 45.2192,3.05466 C44.9925,1.38987 43.8439,0 41.849,0 L39.1287,0 C38.9624,0 38.8264,0.13746 38.8264,0.305466 L38.8264,10.3858 C38.8264,10.5538 38.9624,10.6913 39.1287,10.6913 L41.849,10.6913 Z M39.9443,9.71386 C39.8537,9.71386 39.7932,9.65277 39.7932,9.56113 L39.7932,1.13027 C39.7932,1.03863 39.8537,0.977539 39.9443,0.977539 L41.8486,0.977539 C43.2843,0.977539 44.0399,1.93976 44.2062,3.05471 C44.3875,4.30712 44.3875,6.38428 44.2062,7.63669 C44.0853,8.52254 43.4808,9.71386 41.8486,9.71386 L39.9443,9.71386 Z M4.50548,22.3753 C4.47525,22.2226 4.35435,22.1462 4.21833,22.1462 L3.34179,22.1462 C3.20577,22.1462 3.08487,22.2226 3.05464,22.3753 L2.13276,27.0337 C2.11765,27.1253 1.96652,27.1253 1.95141,27.0337 L1.33178,19.3207 C1.31667,19.1526 1.18065,19.0916 1.04463,19.0916 L0.304105,19.0916 C0.0622989,19.0916 -0.0132653,19.2443 0.00184751,19.397 L0.953958,29.5538 C0.96907,29.7065 1.10509,29.7829 1.2411,29.7829 L2.61637,29.7829 C2.75239,29.7829 2.87329,29.7065 2.90352,29.5538 L3.74984,24.9412 C3.76495,24.8649 3.8254,24.8649 3.84051,24.9412 L4.47525,29.5538 C4.49037,29.7065 4.62638,29.7829 4.7624,29.7829 L6.13767,29.7829 C6.27368,29.7829 6.4097,29.7065 6.42481,29.5538 L7.51294,19.397 C7.52805,19.2443 7.45249,19.0916 7.21068,19.0916 L6.47015,19.0916 C6.33413,19.0916 6.19812,19.1526 6.18301,19.3207 L5.50293,27.0337 C5.48782,27.1253 5.33669,27.1253 5.32157,27.0337 L4.50548,22.3753 Z M16.4899,20.4204 C17.6838,20.4204 18.3337,21.2452 18.4546,22.1463 C18.6208,23.3987 18.6359,25.4759 18.4546,26.7283 C18.3034,27.828 17.5024,28.4542 16.4899,28.4542 C15.3111,28.4542 14.6461,27.6141 14.5252,26.7283 C14.3741,25.4759 14.3741,23.3987 14.5252,22.1463 C14.6612,21.0313 15.5075,20.4204 16.4899,20.4204 Z M16.4896,18.9695 C14.4947,18.9695 13.2856,20.4815 13.0892,22.1463 C12.938,23.3682 12.938,25.4912 13.0892,26.7283 C13.331,28.6986 14.676,29.9052 16.4896,29.9052 C18.4845,29.9052 19.7086,28.4084 19.89,26.7283 C20.026,25.5064 20.0411,23.3682 19.89,22.1463 C19.6482,20.1761 18.3031,18.9695 16.4896,18.9695 Z M29.2147,20.4204 C30.4087,20.4204 31.0585,21.2452 31.1794,22.1463 C31.3456,23.3987 31.3608,25.4759 31.1794,26.7283 C31.0283,27.828 30.2273,28.4542 29.2147,28.4542 C28.0359,28.4542 27.371,27.6141 27.2501,26.7283 C27.0989,25.4759 27.0989,23.3987 27.2501,22.1463 C27.3861,21.0313 28.2324,20.4204 29.2147,20.4204 Z M29.2142,18.9695 C27.2193,18.9695 26.0103,20.4815 25.8138,22.1463 C25.6627,23.3682 25.6627,25.4912 25.8138,26.7283 C26.0556,28.6986 27.4006,29.9052 29.2142,29.9052 C31.2091,29.9052 32.4332,28.4084 32.6146,26.7283 C32.7506,25.5064 32.7657,23.3682 32.6146,22.1463 C32.3728,20.1761 31.0277,18.9695 29.2142,18.9695 Z M42.0301,29.7829 C43.7832,29.7829 45.0074,28.3319 45.2038,26.5755 C45.3399,25.3536 45.355,23.5208 45.2038,22.2989 C44.9923,20.5272 43.7832,19.0916 42.0301,19.0916 L39.1587,19.0916 C38.9925,19.0916 38.8564,19.229 38.8564,19.397 L38.8564,29.4774 C38.8564,29.6454 38.9925,29.7829 39.1587,29.7829 L42.0301,29.7829 Z M40.4434,28.3321 C40.3527,28.3321 40.2922,28.271 40.2922,28.1794 L40.2922,20.6955 C40.2922,20.6038 40.3527,20.5427 40.4434,20.5427 L42.0302,20.5427 C42.9521,20.5427 43.6624,21.3828 43.7682,22.2992 C43.9193,23.521 43.9193,25.3538 43.7682,26.5757 C43.6624,27.4921 42.9521,28.3321 42.0302,28.3321 L40.4434,28.3321 Z" id="path2_fill"></path>
                    </g>
                </g>
                <g id="CHASE-TURN" transform="translate(64.000000, 0.000000)">
                    <g id="path3_fill-link" transform="translate(0.690000, 0.460000)">
                        <path d="M5.85245,7.75883 C5.85245,8.65995 5.12704,9.95818 3.49485,9.95818 C1.86266,9.95818 1.25815,8.64468 1.13724,7.75883 C0.955888,6.50642 0.955888,4.42925 1.13724,3.17684 C1.30348,2.06189 2.05913,0.97749 3.49485,0.97749 C4.93057,0.97749 5.85245,2.04662 5.85245,3.17684 L5.85245,3.23794 C5.85245,3.40594 5.98847,3.5434 6.15471,3.5434 L6.56276,3.5434 C6.729,3.5434 6.86502,3.40594 6.86502,3.23794 L6.86502,3.17684 C6.86502,1.49678 5.48975,0 3.49485,0 C1.49995,0 0.351374,1.51206 0.124681,3.17684 C-0.0415604,4.39871 -0.0415604,6.52169 0.124681,7.75883 C0.3816,9.72908 1.68131,10.9357 3.49485,10.9357 C5.30839,10.9357 6.86502,9.74436 6.86502,7.75883 L6.86502,7.69774 C6.86502,7.52973 6.729,7.39227 6.56276,7.39227 L6.15471,7.39227 C5.98847,7.39227 5.85245,7.52973 5.85245,7.69774 L5.85245,7.75883 Z M14.028,0.427536 C14.028,0.25953 13.892,0.12207 13.7258,0.12207 L13.363,0.12207 C13.1968,0.12207 13.0608,0.25953 13.0608,0.427536 L13.0608,10.5079 C13.0608,10.6759 13.1968,10.8134 13.363,10.8134 L13.7258,10.8134 C13.892,10.8134 14.028,10.6759 14.028,10.5079 L14.028,5.98701 C14.028,5.89537 14.0885,5.83428 14.1791,5.83428 L18.1387,5.83428 C18.2294,5.83428 18.2898,5.89537 18.2898,5.98701 L18.2898,10.5079 C18.2898,10.6759 18.4259,10.8134 18.5921,10.8134 L18.9548,10.8134 C19.121,10.8134 19.2571,10.6759 19.2571,10.5079 L19.2571,0.427536 C19.2571,0.25953 19.121,0.12207 18.9548,0.12207 L18.5921,0.12207 C18.4259,0.12207 18.2898,0.25953 18.2898,0.427536 L18.2898,4.70406 C18.2898,4.7957 18.2294,4.85679 18.1387,4.85679 L14.1791,4.85679 C14.0885,4.85679 14.028,4.7957 14.028,4.70406 L14.028,0.427536 Z M27.0408,8.00309 C27.0861,7.86563 27.1919,7.78926 27.3279,7.78926 L30.4411,7.78926 C30.5772,7.78926 30.683,7.86563 30.7283,8.00309 L31.4688,10.5843 C31.499,10.7217 31.62,10.8134 31.756,10.8134 L32.1338,10.8134 C32.3756,10.8134 32.4663,10.6454 32.436,10.5079 L29.5495,0.35117 C29.5193,0.21371 29.3984,0.12207 29.2623,0.12207 L28.5067,0.12207 C28.3707,0.12207 28.2498,0.21371 28.2196,0.35117 L25.333,10.5079 C25.3028,10.6454 25.3935,10.8134 25.6353,10.8134 L26.0131,10.8134 C26.1491,10.8134 26.27,10.7217 26.3002,10.5843 L27.0408,8.00309 Z M28.8082,1.48153 C28.8233,1.42044 28.8384,1.38989 28.8686,1.38989 L28.8989,1.38989 C28.9291,1.38989 28.9442,1.42044 28.9593,1.48153 L30.3346,6.67445 C30.3648,6.79664 30.3044,6.84246 30.2137,6.84246 L27.5538,6.84246 C27.4631,6.84246 27.4027,6.79664 27.4329,6.67445 L28.8082,1.48153 Z M43.8761,7.75883 C43.8609,9.05706 42.9844,9.95818 41.6091,9.95818 C40.113,9.95818 39.3422,8.82796 39.3422,7.75883 L39.3422,7.51446 C39.3422,7.34645 39.2062,7.20899 39.0399,7.20899 L38.6621,7.20899 C38.4959,7.20899 38.3599,7.34645 38.3599,7.51446 L38.3599,7.75883 C38.3599,9.49999 39.6596,10.9357 41.6091,10.9357 C43.3169,10.9357 44.8584,9.75963 44.8584,7.75883 C44.8584,5.88022 43.7249,5.20819 42.0927,4.70417 C41.05,4.38343 39.6293,4.24597 39.6293,2.87138 C39.6293,1.92443 40.2641,0.97749 41.6091,0.97749 C42.7426,0.97749 43.5889,1.7717 43.5889,2.87138 L43.5889,3.06993 C43.5889,3.23794 43.7249,3.3754 43.8912,3.3754 L44.2539,3.3754 C44.4201,3.3754 44.5561,3.23794 44.5561,3.06993 L44.5561,2.87138 C44.5561,1.29823 43.3924,0 41.6091,0 C40.0525,0 38.647,1.03858 38.647,2.87138 C38.647,4.65835 40.0827,5.23874 41.186,5.49838 C42.9088,5.91076 43.8912,6.36896 43.8761,7.75883 Z M52.612,1.25229 C52.612,1.16065 52.6724,1.09956 52.7631,1.09956 L56.9796,1.09956 C57.1459,1.09956 57.2819,0.962101 57.2819,0.794095 L57.2819,0.427536 C57.2819,0.25953 57.1459,0.12207 56.9796,0.12207 L51.947,0.12207 C51.7808,0.12207 51.6448,0.25953 51.6448,0.427536 L51.6448,10.5079 C51.6448,10.6759 51.7808,10.8134 51.947,10.8134 L57.0098,10.8134 C57.1761,10.8134 57.3121,10.6759 57.3121,10.5079 L57.3121,10.1413 C57.3121,9.97334 57.1761,9.83588 57.0098,9.83588 L52.7631,9.83588 C52.6724,9.83588 52.612,9.77479 52.612,9.68315 L52.612,5.98701 C52.612,5.89537 52.6724,5.83428 52.7631,5.83428 L56.8134,5.83428 C56.9796,5.83428 57.1156,5.69682 57.1156,5.52881 L57.1156,5.17753 C57.1156,5.00952 56.9796,4.87206 56.8134,4.87206 L52.7631,4.87206 C52.6724,4.87206 52.612,4.81097 52.612,4.71933 L52.612,1.25229 Z M3.61159995,28.5175878 C2.42599996,28.5175878 1.75719997,27.6967878 1.63559997,26.7999878 C1.48359997,25.5535878 1.48359997,23.4863879 1.63559997,22.2399879 C1.77239997,21.1303879 2.62359996,20.5223879 3.61159995,20.5223879 C4.99479993,20.5375879 5.58759992,21.4495879 5.58759992,22.4527879 C5.58759992,22.6199879 5.72439992,22.7567879 5.89159992,22.7567879 L6.72759991,22.7567879 C6.8947999,22.7567879 7.0315999,22.6199879 7.0315999,22.4527879 C7.0315999,20.3551879 5.58759992,19.0783879 3.61159995,19.0783879 C1.60519997,19.0783879 0.389199986,20.5831879 0.191599989,22.2399879 C0.0395999908,23.4559879 0.0395999908,25.5687878 0.191599989,26.7999878 C0.434799986,28.7607878 1.78759997,29.9615878 3.61159995,29.9615878 C5.78519992,29.9615878 7.0315999,28.3655878 7.0315999,26.5871878 C7.0315999,26.4199878 6.8947999,26.2831878 6.72759991,26.2831878 L5.89159992,26.2831878 C5.58759992,26.2831878 5.58759992,26.5719878 5.58759992,26.7999878 C5.58759992,27.9095878 4.62999993,28.5175878 3.61159995,28.5175878 Z M16.418,20.6439879 L14.974,20.6439879 C14.8828,20.6439879 14.822,20.7047879 14.822,20.7959879 L14.822,23.9879879 C14.822,24.0791879 14.8828,24.1399879 14.974,24.1399879 L16.418,24.1399879 C17.3452,24.1399879 18.166,23.3647879 18.166,22.3919879 C18.166,21.4343879 17.3756,20.6439879 16.418,20.6439879 Z M15.9012,25.5839878 L14.974,25.5839878 C14.8828,25.5839878 14.822,25.6447878 14.822,25.7359878 L14.822,29.5359878 C14.822,29.7031878 14.6852,29.8399878 14.518,29.8399878 L13.682,29.8399878 C13.5148,29.8399878 13.378,29.7031878 13.378,29.5359878 L13.378,19.5039879 C13.378,19.3367879 13.5148,19.1999879 13.682,19.1999879 L16.418,19.1999879 C18.1812,19.1999879 19.61,20.6287879 19.61,22.3919879 C19.61,23.5471879 18.9564,24.5655879 18.0292,25.1127879 C17.7404,25.2799879 17.634,25.4167878 17.7708,25.6903878 L19.5644,29.3839878 C19.6708,29.6119878 19.5796,29.8399878 19.2756,29.8399878 L18.4244,29.8399878 C18.1812,29.8399878 18.0748,29.7183878 17.9836,29.5359878 L16.19,25.7663878 C16.1444,25.6751878 16.0684,25.5839878 15.9012,25.5839878 Z M27.3396001,27.2863878 L26.6708001,29.6119878 C26.6252001,29.7487878 26.5188001,29.8399878 26.3820001,29.8399878 L25.5460001,29.8399878 C25.3028001,29.8399878 25.2116001,29.6727878 25.2420001,29.5359878 L28.0692001,19.4279879 C28.0996001,19.2911879 28.2212001,19.1999879 28.358,19.1999879 L29.422,19.1999879 C29.5588,19.1999879 29.6804,19.2911879 29.7108,19.4279879 L32.538,29.5359878 C32.5684,29.6727878 32.4772,29.8399878 32.234,29.8399878 L31.398,29.8399878 C31.2612,29.8399878 31.1548,29.7487878 31.1092,29.6119878 L30.4404,27.2863878 C30.41,27.1495878 30.2884,27.0735878 30.1516,27.0735878 L27.6284001,27.0735878 C27.4916001,27.0735878 27.3852001,27.1495878 27.3396001,27.2863878 Z M28.814,21.2519879 L27.8260001,25.4927878 C27.7956001,25.6143878 27.8564001,25.6599878 27.9476001,25.6599878 L29.8324,25.6599878 C29.9236,25.6599878 29.9844,25.6143878 29.954,25.4927878 L28.966,21.2519879 C28.9508,21.1911879 28.9356,21.1607879 28.9052,21.1607879 L28.8748,21.1607879 C28.8444,21.1607879 28.8292,21.1911879 28.814,21.2519879 Z M40.4956001,25.2799879 C40.4956001,25.1887879 40.5564001,25.1279879 40.6476001,25.1279879 L44.2500001,25.1279879 C44.4172001,25.1279879 44.5540001,24.9911879 44.5540001,24.8239879 L44.5540001,23.9879879 C44.5540001,23.8207879 44.4172001,23.6839879 44.2500001,23.6839879 L40.6476001,23.6839879 C40.5564001,23.6839879 40.4956001,23.6231879 40.4956001,23.5319879 L40.4956001,20.7959879 C40.4956001,20.7047879 40.5564001,20.6439879 40.6476001,20.6439879 L44.4172001,20.6439879 C44.5844001,20.6439879 44.7212001,20.5071879 44.7212001,20.3399879 L44.7212001,19.5039879 C44.7212001,19.3367879 44.5844001,19.1999879 44.4172001,19.1999879 L39.3556001,19.1999879 C39.1884001,19.1999879 39.0516001,19.3367879 39.0516001,19.5039879 L39.0516001,29.5359878 C39.0516001,29.7031878 39.1884001,29.8399878 39.3556001,29.8399878 L40.1916001,29.8399878 C40.3588001,29.8399878 40.4956001,29.7031878 40.4956001,29.5359878 L40.4956001,25.2799879 Z M53.4236001,20.6439879 C53.5148001,20.6439879 53.5756001,20.7047879 53.5756001,20.7959879 L53.5756001,29.5359878 C53.5756001,29.7031878 53.7124001,29.8399878 53.8796001,29.8399878 L54.7156001,29.8399878 C54.8828001,29.8399878 55.0196001,29.7031878 55.0196001,29.5359878 L55.0196001,20.7959879 C55.0196001,20.7047879 55.0804001,20.6439879 55.1716001,20.6439879 L57.1780001,20.6439879 C57.3452001,20.6439879 57.4820001,20.5071879 57.4820001,20.3399879 L57.4820001,19.5039879 C57.4820001,19.3367879 57.3452001,19.1999879 57.1780001,19.1999879 L51.4020002,19.1999879 C51.2348002,19.1999879 51.0980002,19.3367879 51.0980002,19.5039879 L51.0980002,20.3399879 C51.0980002,20.5071879 51.2348002,20.6439879 51.4020002,20.6439879 L53.4236001,20.6439879 Z" id="path3_fill"></path>
                    </g>
                </g>
            </g>
        </g>
    </g>
</svg>